Coordinates
version=1
nRows=22
nColumns=24
inDegrees=yes

Units are S.I. units (second, meters, Newtons, ...)
Angles are in degrees.

endheader
time	pelvis_tilt	pelvis_list	pelvis_rotation	pelvis_tx	pelvis_ty	pelvis_tz	hip_flexion_r	hip_adduction_r	hip_rotation_r	knee_angle_r	ankle_angle_r	subtalar_angle_r	mtp_angle_r	hip_flexion_l	hip_adduction_l	hip_rotation_l	knee_angle_l	ankle_angle_l	subtalar_angle_l	mtp_angle_l	lumbar_extension	lumbar_bending	lumbar_rotation
      0.85816667	      1.27962280	     -6.11898302	      1.63447189	     -0.40385342	      1.00970019	      0.33411944	      6.47018284	      9.02485561	     -1.37998151	    -14.87752869	     10.47320901	     -7.57152421	     -3.91006093	     11.79664396	     -6.62992149	     -0.79243917	    -70.34306047	     -5.82389280	     -8.83622197	     -1.07959395	    -12.00383371	     16.42478531	     -2.94842833
      0.86233333	      1.35009020	     -5.89305317	      1.60178949	     -0.39896585	      1.01073047	      0.33453725	      5.86733248	      8.83213881	     -1.26785289	    -14.45294298	     10.48541016	     -7.55654402	     -3.90429256	     12.28683051	     -6.43237571	     -0.90762097	    -70.23742485	     -5.28554283	     -9.09849133	     -1.18240482	    -12.15354015	     16.09273800	     -2.70042996
      0.86650000	      1.43811310	     -5.68180206	      1.56336943	     -0.39405016	      1.01174450	      0.33496131	      5.23054013	      8.65607000	     -1.13764588	    -13.99743045	     10.51451367	     -7.54809612	     -3.89845950	     12.74355043	     -6.25689053	     -1.03380894	    -70.08218117	     -4.77099114	     -9.33169497	     -1.29733817	    -12.30928597	     15.78399682	     -2.42346047
      0.87066667	      1.50189374	     -5.43736426	      1.51647169	     -0.38916933	      1.01270025	      0.33538433	      4.64555730	      8.43867849	     -1.03771116	    -13.59466108	     10.52309675	     -7.51241178	     -3.89644461	     13.21490312	     -6.03760886	     -1.16464699	    -69.87253629	     -4.24365158	     -9.56066388	     -1.36558408	    -12.44415549	     15.43446628	     -2.25896443
      0.87483333	      1.59280812	     -5.19993685	      1.45953701	     -0.38425019	      1.01367453	      0.33581404	      4.00659359	      8.23133055	     -0.89712630	    -13.14363620	     10.57773614	     -7.49917810	     -3.89333925	     13.63540460	     -5.83070979	     -1.31084446	    -69.59744378	     -3.77588592	     -9.75876500	     -1.48812299	    -12.60519137	     15.08842995	     -1.91978545
      0.87900000	      1.64794163	     -4.95230913	      1.40772584	     -0.37937946	      1.01454126	      0.33621770	      3.43582765	      8.00453244	     -0.80181421	    -12.74694064	     10.58873673	     -7.46086897	     -3.89330122	     14.09653341	     -5.60536892	     -1.44733346	    -69.29473219	     -3.27613933	     -9.93549483	     -1.56463846	    -12.72891365	     14.73758240	     -1.75185413
      0.88316667	      1.75855748	     -4.72039155	      1.34946154	     -0.37445966	      1.01546655	      0.33663348	      2.77553362	      7.79911702	     -0.67107555	    -12.29109669	     10.64203887	     -7.44025894	     -3.89428751	     14.47063634	     -5.40344927	     -1.59314417	    -68.92129880	     -2.80712257	    -10.08070084	     -1.69107262	    -12.90691299	     14.40090147	     -1.43916229
      0.88733333	      1.83323875	     -4.47522578	      1.29190214	     -0.36957493	      1.01628951	      0.33703250	      2.17567113	      7.57281826	     -0.56587507	    -11.87525312	     10.67694115	     -7.41245523	     -3.89744726	     14.88007184	     -5.18018481	     -1.73244171	    -68.51123078	     -2.33533722	    -10.20519617	     -1.81227661	    -13.04950911	     14.05051986	     -1.21171803
      0.89150000	      1.87228329	     -4.23144389	      1.23419378	     -0.36471713	      1.01701321	      0.33741601	      1.62637820	      7.34380473	     -0.46971514	    -11.47954630	     10.70924527	     -7.36876117	     -3.90189056	     15.32256085	     -4.95078585	     -1.85926382	    -68.06262724	     -1.86009946	    -10.30598497	     -1.91775621	    -13.15598564	     13.69575327	     -1.01519521
      0.89566667	      1.97184975	     -3.99709606	      1.17302913	     -0.35982040	      1.01779283	      0.33779395	      1.00037440	      7.12419578	     -0.37987439	    -11.06134301	     10.74902417	     -7.33839288	     -3.90946810	     15.67611486	     -4.74136720	     -2.00577705	    -67.55282256	     -1.39224408	    -10.38140899	     -2.04173875	    -13.31098663	     13.36440892	     -0.77880062
      0.89983333	      1.97724727	     -3.75307010	      1.11542880	     -0.35496297	      1.01837547	      0.33814374	      0.50458259	      6.88703621	     -0.32051523	    -10.69699301	     10.76890553	     -7.28929324	     -3.91429764	     16.13127346	     -4.50380744	     -2.12320296	    -67.01401326	     -0.91626471	    -10.45394995	     -2.09508140	    -13.35197381	     13.03373109	     -0.67738408
      0.90400000	      2.08943134	     -3.51502975	      1.06204065	     -0.35011472	      1.01907708	      0.33848688	     -0.13057306	      6.65997141	     -0.21538112	    -10.28093167	     10.85335031	     -7.23685611	     -3.92410115	     16.45003713	     -4.27377910	     -2.23430762	    -66.41077062	     -0.48062152	    -10.45867700	     -2.21718371	    -13.56149170	     12.69333966	     -0.39545566
      0.90816667	      2.13483707	     -3.28814525	      0.99741571	     -0.34524787	      1.01962693	      0.33882613	     -0.67473946	      6.43835305	     -0.14394393	     -9.90232244	     10.88439492	     -7.18487386	     -3.94278553	     16.82986987	     -4.05811968	     -2.35900069	    -65.77429698	     -0.00639648	    -10.48895943	     -2.40071178	    -13.66590313	     12.36189010	     -0.15539398
      0.91233333	      2.18209507	     -3.06312616	      0.95441912	     -0.34040019	      1.02012116	      0.33913575	     -1.21880009	      6.21873150	     -0.08701529	     -9.52604183	     10.95919434	     -7.14257528	     -3.95734165	     17.20240395	     -3.83364189	     -2.44677422	    -65.09599752	      0.42632092	    -10.45033687	     -2.52825881	    -13.76212920	     12.03908263	     -0.01358374
      0.91650000	      2.17207225	     -2.84316733	      0.90756725	     -0.33556397	      1.02049993	      0.33940495	     -1.68287389	      5.99812690	     -0.04394716	     -9.18213765	     10.98825198	     -7.09876739	     -3.96686317	     17.62469062	     -3.60092637	     -2.51912490	    -64.37345126	      0.85943128	    -10.42737984	     -2.59034839	    -13.78788996	     11.75511506	      0.07881424
      0.92066667	      2.25902616	     -2.63912895	      0.86241722	     -0.33071557	      1.02095081	      0.33969715	     -2.27290341	      5.79816990	      0.01528234	     -8.79477973	     11.07263256	     -7.04054717	     -3.98564417	     17.92369174	     -3.39887220	     -2.60218176	    -63.60401022	      1.28148365	    -10.36166701	     -2.72089188	    -13.94853403	     11.44383648	      0.30067996
      0.92483333	      2.29439319	     -2.43275158	      0.81712701	     -0.32588046	      1.02127679	      0.33994848	     -2.78826688	      5.58976933	      0.05632414	     -8.44423033	     11.13374669	     -6.97708243	     -4.01034285	     18.26740384	     -3.17824066	     -2.66288916	    -62.79269587	      1.69337589	    -10.30850347	     -2.87438836	    -14.04302250	     11.15534371	      0.47000972
      0.92900000	      2.31570072	     -2.22543942	      0.78120925	     -0.32103975	      1.02155052	      0.34018445	     -3.28592356	      5.37960339	      0.08023334	     -8.09863033	     11.21530186	     -6.91842632	     -4.03060007	     18.61164188	     -2.95085619	     -2.70791423	    -61.92978024	      2.05652766	    -10.22546152	     -2.98988569	    -14.10861481	     10.86655650	      0.58837920
      0.93316667	      2.34103000	     -2.04652272	      0.74810973	     -0.31620023	      1.02175871	      0.34040322	     -3.78622398	      5.19908409	      0.10641915	     -7.75517917	     11.28577252	     -6.85582229	     -4.05382607	     18.94139874	     -2.75046984	     -2.73613447	    -61.03630861	      2.42418523	    -10.13878048	     -3.11031790	    -14.18547589	     10.61272857	      0.72338024
      0.93733333	      2.31928782	     -1.86027612	      0.71279334	     -0.31136192	      1.02186162	      0.34059313	     -4.22059722	      5.00612146	      0.11572310	     -7.44179351	     11.33672459	     -6.79798849	     -4.06727857	     19.30587202	     -2.53091933	     -2.74845725	    -60.09301702	      2.76025810	    -10.06562683	     -3.16962730	    -14.19307416	     10.36740107	      0.79616709
      0.94150000	      2.38295696	     -1.68583855	      0.68371991	     -0.30650081	      1.02204295	      0.34078167	     -4.76972820	      4.82667291	      0.12916221	     -7.08517333	     11.44478878	     -6.70072746	     -4.09280963	     19.55594975	     -2.32872681	     -2.75977704	    -59.09635115	      3.05713553	     -9.97820118	     -3.28716579	    -14.32441555	     10.10842341	      0.96102415
      0.94566667	      2.41301772	     -1.51891334	      0.65677925	     -0.30164048	      1.02212485	      0.34095235	     -5.27125983	      4.65401485	      0.13171408	     -6.75060312	     11.52926918	     -6.62102340	     -4.12035791	     19.82936766	     -2.12604943	     -2.75152355	    -58.05962624	      3.32561719	     -9.89854367	     -3.40046061	    -14.40440817	      9.87371375	      1.08207004
